<svg id="Lager_1" data-name="Lager 1" xmlns="http://www.w3.org/2000/svg" xmlns:xlink="http://www.w3.org/1999/xlink" viewBox="0 0 360 360"><defs><style>.cls-1{fill:#fff8dc;}.cls-2{font-size:21px;font-family:MonotypeCorsiva, Monotype Corsiva;text-decoration:underline;}.cls-3{fill:#f5fffa;}.cls-4,.cls-5,.cls-6,.cls-7{fill:none;}.cls-4,.cls-5,.cls-6{stroke-miterlimit:10;}.cls-4{stroke:url(#Blå_himmel);}.cls-5{stroke:url(#Vit_svart);}.cls-6,.cls-7{stroke:#29abe2;stroke-linecap:round;}.cls-7{stroke-linejoin:round;}</style><linearGradient id="Blå_himmel" x1="107.56" y1="261.45" x2="252.44" y2="261.45" gradientUnits="userSpaceOnUse"><stop offset="0" stop-color="#3ddeed"/><stop offset="1" stop-color="#3ddeed" stop-opacity="0"/></linearGradient><linearGradient id="Vit_svart" x1="153.88" y1="144.44" x2="304.05" y2="144.44" gradientTransform="matrix(1, 0, 0, 1, 0.22, 1.27)" gradientUnits="userSpaceOnUse"><stop offset="0" stop-color="#fff"/><stop offset="1"/></linearGradient></defs><title>Rityta 1</title><circle class="cls-1" cx="180" cy="180" r="178.5"/><path d="M180,3A177,177,0,0,1,305.16,305.16,177,177,0,0,1,54.84,54.84,175.84,175.84,0,0,1,180,3m0-3A180,180,0,1,0,360,180,180,180,0,0,0,180,0Z"/><path d="M180,6.67A173.33,173.33,0,0,1,302.56,302.56,173.33,173.33,0,1,1,57.44,57.44,172.17,172.17,0,0,1,180,6.67m0-1A174.33,174.33,0,1,0,354.33,180,174.33,174.33,0,0,0,180,5.67Z"/><path d="M180,53.44A126.56,126.56,0,1,1,90.51,90.51,125.73,125.73,0,0,1,180,53.44m0-1A127.56,127.56,0,1,0,307.56,180,127.56,127.56,0,0,0,180,52.44Z"/><path d="M82.48,56.2l-1.21.87q-1.51-2.64-2.41-3.9a4.76,4.76,0,0,0-3-2.1,4.4,4.4,0,0,0-3.48,1,8,8,0,0,0-3.15,5.38A6.76,6.76,0,0,0,70.57,63a5.86,5.86,0,0,0,2.26,1.7,18.68,18.68,0,0,0,4.37.89A26.75,26.75,0,0,1,85,67.34a9.2,9.2,0,0,1,3.54,2.81A12.29,12.29,0,0,1,90.82,76,15.16,15.16,0,0,1,86,88.59a9.27,9.27,0,0,1-5.8,2.48c-2.16.11-3.8-.34-4.91-1.45a3.2,3.2,0,0,1-1-2A1.92,1.92,0,0,1,74.82,86a1.75,1.75,0,0,1,1.6-.47,6,6,0,0,1,2,1A9,9,0,0,0,81,87.91a4.77,4.77,0,0,0,4.16-1.08,9.83,9.83,0,0,0,1.28-12.66,7.67,7.67,0,0,0-1.68-1.58,10.14,10.14,0,0,0-2.63-1.2,29.71,29.71,0,0,0-4.52-.77A43.35,43.35,0,0,1,73.22,70a11.07,11.07,0,0,1-2.69-1.11,8.36,8.36,0,0,1-2-1.67,9,9,0,0,1-2.09-5.16,12.53,12.53,0,0,1,1-6.32,13.37,13.37,0,0,1,4.37-5.42A22.16,22.16,0,0,1,75.83,48c1-.45,1.8-.86,2.48-1.22a27.72,27.72,0,0,0,1.18,3.48C79.92,51.31,80.91,53.29,82.48,56.2Z"/><path d="M88.42,59.73l-1.54-.34a18,18,0,0,1,1.64-6.67,8.73,8.73,0,0,1,3-3.63,1.65,1.65,0,0,1,1.15-.28,1.31,1.31,0,0,1,.89.69,8.61,8.61,0,0,1,.72,1.56c.2.56.59,1.94,1.2,4.13a36.85,36.85,0,0,1,2.24-7.62,8.6,8.6,0,0,1,3.41-3.86,2.87,2.87,0,0,1,2.79.11,7.2,7.2,0,0,1,2.74,3.29,26.39,26.39,0,0,1,2.55,13.56c-.27,4.88-1.54,8-4.08,9.53a6.87,6.87,0,0,1-3.58.91q1.68,4.56,3.46,9.06a7.25,7.25,0,0,0,.63,1.28,1.75,1.75,0,0,0,1.37.92,11,11,0,0,0,4-1.18l.51,1.38a40,40,0,0,0-4.91,2.72,38.56,38.56,0,0,0-4.25,3.47c-.21-.44-.41-.88-.62-1.33A3.74,3.74,0,0,0,103.07,85a8.64,8.64,0,0,0-.95-3.58q-4.47-10.17-8.38-20.64c-1.44-3.9-2.24-6.07-2.49-6.46a.64.64,0,0,0-1-.25C89.57,54.5,88.91,56.4,88.42,59.73Zm11.9,8.39c1.93.57,3.45.52,4.62-.18,1.68-1,2.27-3.4,1.89-7.28a27.79,27.79,0,0,0-2.9-10.35,3.83,3.83,0,0,0-1.79-1.87,2.32,2.32,0,0,0-2.06.16,4.78,4.78,0,0,0-1.93,2.64,17.05,17.05,0,0,0-1.21,5.55,17.21,17.21,0,0,0,1.22,5.33Q99.23,65.13,100.32,68.12Z"/><path d="M120.75,61.07c-1.09.49-2.18,1-3.26,1.51-.6-2.57-1.18-5.15-1.72-7.73q-1.22-5.72-2.35-10.81A10.75,10.75,0,0,0,113,42.5c-.18-.42-.46-.55-.83-.38a2.58,2.58,0,0,0-.91,1.06,22.25,22.25,0,0,0-1.52,3.93l-1.2-.54a18.59,18.59,0,0,1,2.9-6.25,9,9,0,0,1,3.16-3,1.23,1.23,0,0,1,.83-.08.8.8,0,0,1,.51.46,15.23,15.23,0,0,1,.42,2c.29,1.75.6,3.49.91,5.23a30.33,30.33,0,0,1,2.87-9.61,4.68,4.68,0,0,1,2.15-2.45,1.88,1.88,0,0,1,1.51.06,1.77,1.77,0,0,1,1,1,1.8,1.8,0,0,1-.07,1.42,8.61,8.61,0,0,1-2.08,2.13,10.31,10.31,0,0,0-2.46,2.78,14.48,14.48,0,0,0-1.41,3.87,15.78,15.78,0,0,0-.49,4.12,54,54,0,0,0,1.26,7.23C119.91,57.38,120.33,59.22,120.75,61.07Z"/><path d="M125.09,40.46,123.65,40a18.73,18.73,0,0,1,3.2-5.89,7.76,7.76,0,0,1,3.3-2.47,2.09,2.09,0,0,1,1.42,0,1.35,1.35,0,0,1,.76.91,63.67,63.67,0,0,1,.38,7.27c.25,7.05.75,11.21,1.18,12.54a1.22,1.22,0,0,0,.37.58c.17.14.31.19.43.15.5-.16,1.38-1.7,2.8-4.59l1.23.77a42.51,42.51,0,0,1-3.26,6,4.86,4.86,0,0,1-2,1.75,1.6,1.6,0,0,1-1.46-.16A2.79,2.79,0,0,1,131,55.27c-.79-2.25-1.7-8.16-2.06-17.84a4.28,4.28,0,0,0-.19-1.18c-.12-.37-.34-.5-.65-.4a2.43,2.43,0,0,0-1,.83A24.76,24.76,0,0,0,125.09,40.46ZM129.8,19a2,2,0,0,1,1.62.16,2,2,0,0,1,1,1.29,3.19,3.19,0,0,1-.25,2.38,2.71,2.71,0,0,1-1.65,1.48,1.93,1.93,0,0,1-1.56-.17,2.15,2.15,0,0,1-1-1.34,3,3,0,0,1,.18-2.35A2.7,2.7,0,0,1,129.8,19Z"/><path d="M137.58,36.61l-1.14-.72A24.33,24.33,0,0,1,140.63,30,7.52,7.52,0,0,1,143.87,28a1.36,1.36,0,0,1,.95.06.75.75,0,0,1,.45.52,4.57,4.57,0,0,1,.06.92c0,2,0,3.94,0,5.91a28.09,28.09,0,0,1,5.57-7.3,7.08,7.08,0,0,1,3.41-2.05,2,2,0,0,1,1.77.46,3.05,3.05,0,0,1,.89,2,9.41,9.41,0,0,1,.05,2c-.1,1.27-.46,4.06-.95,8.37a35,35,0,0,0-.31,7.94,1.94,1.94,0,0,0,.29.84.47.47,0,0,0,.45.23c.46-.08,1.09-.72,1.93-1.93a27.7,27.7,0,0,1,1.84-2.41l.74.94a28.28,28.28,0,0,1-3.88,5.31,4.57,4.57,0,0,1-2.24,1.54,1.57,1.57,0,0,1-1.51-.52,5,5,0,0,1-1-2.43c-.32-1.68-.29-6,.44-13a34.12,34.12,0,0,0,.17-4.31c-.1-.58-.48-.82-1.13-.71a5.22,5.22,0,0,0-2.52,1.69,15.61,15.61,0,0,0-3.23,5,13.93,13.93,0,0,0-.6,5.21q.12,5.11.38,10.23c-1.15.28-2.29.57-3.43.88-.11-3-.23-5.77-.38-8.44-.19-3.72-.32-7.44-.41-11.17a4.46,4.46,0,0,0-.09-1c-.12-.5-.36-.71-.71-.63a2.51,2.51,0,0,0-1.07.89A15.7,15.7,0,0,0,137.58,36.61Z"/><path d="M167.92,20.14c1.45-.69,2.92-1.37,4.4-2-.55,2.71-1.08,5.42-1.57,8.14,1.88-.12,3.76-.2,5.64-.25-.12.69-.25,1.37-.37,2.06-1.86.05-3.72.13-5.58.25q-.87,4.88-1.61,9.76a29.32,29.32,0,0,0-.55,6.09,1.82,1.82,0,0,0,.37,1.1,1,1,0,0,0,.79.28,5.17,5.17,0,0,0,2.23-1.22A40.74,40.74,0,0,0,175.45,41l1,1.29c-3.5,3.27-5.65,5.37-6.77,6.16a6.09,6.09,0,0,1-2.72,1.3,1.57,1.57,0,0,1-1.45-.63,4.85,4.85,0,0,1-.78-2.46,30.28,30.28,0,0,1,.27-6.38q.69-5.82,1.56-11.63c-1.45.12-2.9.26-4.35.43l.27-2.09c1.46-.16,2.93-.3,4.4-.42Q167.37,23.33,167.92,20.14Z"/><path d="M190.68,24.37a6,6,0,0,1,3.7,1.24A2.83,2.83,0,0,1,195.51,28a1.93,1.93,0,0,1-.67,1.3,1.78,1.78,0,0,1-1.37.46,1.56,1.56,0,0,1-.86-.3,5.19,5.19,0,0,1-1-1.29c-.8-1.3-1.65-2-2.52-2a2.63,2.63,0,0,0-2,.82,3.16,3.16,0,0,0-.93,2.23,5.27,5.27,0,0,0,.46,2.29,21.93,21.93,0,0,0,2.48,3.68c1.79,2.36,2.56,4.57,2.42,6.59A7.77,7.77,0,0,1,189,46.94,7.56,7.56,0,0,1,183.41,49a5.83,5.83,0,0,1-4.18-1.41,4.72,4.72,0,0,1-1.45-3.41,2.53,2.53,0,0,1,.5-1.68,1.66,1.66,0,0,1,1.33-.67,1.52,1.52,0,0,1,1.18.52,1.78,1.78,0,0,1,.49,1.25q0,.29,0,.75c0,.25,0,.46,0,.63a2.2,2.2,0,0,0,.66,1.61,2.39,2.39,0,0,0,1.76.69,4.89,4.89,0,0,0,2.27-.47,3.9,3.9,0,0,0,1.6-1.55,4.62,4.62,0,0,0,.65-2.11,4.41,4.41,0,0,0-.43-2.09,23.85,23.85,0,0,0-2.3-3.5,10.72,10.72,0,0,1-2.56-6.45,6.55,6.55,0,0,1,2.21-4.88A7.25,7.25,0,0,1,190.68,24.37Z"/><path d="M208,43.43l.58,1.38c-4.78,3.67-8.28,5.45-11,5.13a2.9,2.9,0,0,1-2.41-1.64,8.54,8.54,0,0,1-.49-4.49A23.51,23.51,0,0,1,199.18,32c3.07-4.3,6.62-6.17,10.31-5.54A4,4,0,0,1,212.26,28a3.73,3.73,0,0,1,.48,2.95,6.74,6.74,0,0,1-1.87,3.39,15.41,15.41,0,0,1-4.79,3c-1.08.47-3.37,1.26-6.74,2.52a20.7,20.7,0,0,0-.57,2.91A5.35,5.35,0,0,0,199,45.6a1.83,1.83,0,0,0,1.48,1,4.65,4.65,0,0,0,2.25-.35A40.75,40.75,0,0,0,208,43.43ZM199.86,38a23.52,23.52,0,0,0,6.83-3.54,5.18,5.18,0,0,0,2-3,3,3,0,0,0-.27-2.05,2,2,0,0,0-1.46-1,3,3,0,0,0-2.05.5,7.68,7.68,0,0,0-2.54,2.9A28.26,28.26,0,0,0,199.86,38Z"/><path d="M233.75,32.21l2.29.22q-4.08,5.72-7.6,11.69a77.16,77.16,0,0,0-3.83,7.24,34.8,34.8,0,0,0-1.42,3.83,28,28,0,0,1-2.62,6.18,11.71,11.71,0,0,1-4.89,4.53,9.18,9.18,0,0,1-6.19.7,6.17,6.17,0,0,1-5-7.11,7.21,7.21,0,0,1,2.15-4,14.65,14.65,0,0,1,5.11-2.73c1.3-.49,2.55-1,3.75-1.51a6.28,6.28,0,0,1-2.94.45,2,2,0,0,1-1.32-1.3,4.48,4.48,0,0,1-.15-2.71A20.93,20.93,0,0,1,216,38a18.88,18.88,0,0,1,8.71-5.92,11.5,11.5,0,0,1,6.75.27c.5.15,1.1.36,1.81.63C233.39,32.7,233.57,32.46,233.75,32.21Zm-12,17.19c-1.39.83-3.95,2.05-7.52,3.85a22,22,0,0,0-5.79,3.66A6,6,0,0,0,207,59.84a4.53,4.53,0,0,0,.53,3.1,3.43,3.43,0,0,0,2.33,1.83,5.16,5.16,0,0,0,3-.29,8.8,8.8,0,0,0,3.07-2.09,12.79,12.79,0,0,0,2.51-3.6A38.46,38.46,0,0,0,220.51,53C220.67,52.51,221.09,51.3,221.78,49.4Zm7.76-14a10.5,10.5,0,0,0-2.14-.9,6.63,6.63,0,0,0-4.62.22,10.35,10.35,0,0,0-4.16,3.94,23.58,23.58,0,0,0-3.5,7.47,3.86,3.86,0,0,0,.12,2.35,1.79,1.79,0,0,0,1.19,1.23,4.4,4.4,0,0,0,2.61-.48,9.23,9.23,0,0,0,3-2.06,26.08,26.08,0,0,0,3.44-5C226.82,39.85,228.17,37.6,229.54,35.35Z"/><path d="M241.57,53.76c.13.43.25.86.38,1.29a32.35,32.35,0,0,1-6,2.5c-2.11.65-3.65.81-4.68.44a1.45,1.45,0,0,1-.92-1.05,3.19,3.19,0,0,1,.17-1.91,52.24,52.24,0,0,1,4.69-8.45q3.47-5.44,7.15-10.79a45.49,45.49,0,0,1,6-7.49,12.44,12.44,0,0,1,7-3,13.63,13.63,0,0,1,7.46,1.3,3.28,3.28,0,0,1,1.61,1.46,1.76,1.76,0,0,1,0,1.61,1.87,1.87,0,0,1-1.33,1,3.24,3.24,0,0,1-2.15-.4,17.71,17.71,0,0,1-2.19-1.36,15.13,15.13,0,0,0-2.33-1.32,2.94,2.94,0,0,0-1.9-.31,6,6,0,0,0-2.58,2c-1,1.16-2.83,3.54-5.4,7.16q-3.6,5-7,10.14c-3.41,5.15-5.06,7.89-5.16,8.14-.22.57-.16.93.19,1.06a3.29,3.29,0,0,0,1.73-.12A32.8,32.8,0,0,0,241.57,53.76Z"/><path d="M248.38,45.2c-.22-.46-.45-.92-.69-1.37a19.25,19.25,0,0,1,6.44-2,7.84,7.84,0,0,1,4.13.55,2,2,0,0,1,1,1,1.32,1.32,0,0,1-.07,1.19A67.41,67.41,0,0,1,254.42,50c-4.76,5.22-7.29,8.55-7.91,9.81a1.25,1.25,0,0,0-.14.68.49.49,0,0,0,.21.41c.48.23,2.19-.26,5.26-1.33L252.2,61a44.39,44.39,0,0,1-6.55,2,5.06,5.06,0,0,1-2.69-.14,1.63,1.63,0,0,1-.94-1.14,2.74,2.74,0,0,1,.27-1.8c1-2.17,4.47-7.05,11-14.25a4.5,4.5,0,0,0,.69-1c.16-.35.1-.59-.2-.74a2.32,2.32,0,0,0-1.33-.12A24.06,24.06,0,0,0,248.38,45.2Zm18.47-12.12a2.07,2.07,0,0,1,1.08,1.25,2,2,0,0,1-.19,1.61,3.15,3.15,0,0,1-1.86,1.52,2.75,2.75,0,0,1-2.24-.1,1.94,1.94,0,0,1-1-1.21,2.14,2.14,0,0,1,.19-1.68,3,3,0,0,1,1.77-1.56A2.76,2.76,0,0,1,266.85,33.08Z"/><path d="M260.19,51.2l-.33-1.33a24.55,24.55,0,0,1,7.24-1.27,7.73,7.73,0,0,1,3.76.92,1.57,1.57,0,0,1,.67.72.72.72,0,0,1,0,.69,4.79,4.79,0,0,1-.6.7q-2.08,2.11-4.12,4.25A28.12,28.12,0,0,1,276,54.66a7.46,7.46,0,0,1,4,1,2.15,2.15,0,0,1,1,1.6,3,3,0,0,1-.71,2,9.33,9.33,0,0,1-1.39,1.48c-1,.83-3.21,2.55-6.6,5.26a33.88,33.88,0,0,0-5.82,5.43,1.91,1.91,0,0,0-.38.81.48.48,0,0,0,.18.49c.4.28,1.32.27,2.8,0a28.74,28.74,0,0,1,3.08-.38c0,.4-.07.81-.11,1.21a28.58,28.58,0,0,1-6.64,1,4.84,4.84,0,0,1-2.76-.51,1.64,1.64,0,0,1-.76-1.46,4.81,4.81,0,0,1,1-2.44c.94-1.41,4-4.49,9.48-9a31.53,31.53,0,0,0,3.17-3c.34-.48.22-.93-.35-1.32a5.43,5.43,0,0,0-3.06-.6,15.73,15.73,0,0,0-5.89,1.22,13.78,13.78,0,0,0-4.1,3.29q-3.5,3.75-6.9,7.58c-1-.61-2.09-1.22-3.15-1.8,2-2.19,3.88-4.28,5.64-6.3q3.71-4.19,7.54-8.27a5.27,5.27,0,0,0,.6-.75c.26-.44.23-.76-.09-1a2.54,2.54,0,0,0-1.41-.12A16.12,16.12,0,0,0,260.19,51.2Z"/><path d="M300.29,72.38l2.07,1.31c-4.19,2.14-8.24,4.48-12.15,7a71.19,71.19,0,0,0-6.7,4.74,28.66,28.66,0,0,0-3,2.81,27.1,27.1,0,0,1-5.11,4.35,11.57,11.57,0,0,1-6.53,1.77A10,10,0,0,1,262.8,92a6.54,6.54,0,0,1-2.68-4.36,6,6,0,0,1,1-4.42,7,7,0,0,1,3.73-2.65,15.13,15.13,0,0,1,5.95-.1c1.42.17,2.8.31,4.15.4a6.78,6.78,0,0,1-2.94-1,2.05,2.05,0,0,1-.69-1.79,4.49,4.49,0,0,1,1-2.53,20.15,20.15,0,0,1,8.74-6.49,19.13,19.13,0,0,1,10.71-1.27,12.71,12.71,0,0,1,6.22,3.49c.4.38.88.86,1.43,1.45Zm-18.6,9.86c-1.66.09-4.59,0-8.7-.07a22.73,22.73,0,0,0-7,.61,5.73,5.73,0,0,0-2.63,2,4.37,4.37,0,0,0-.85,3,3.69,3.69,0,0,0,1.41,2.75,5.68,5.68,0,0,0,2.94,1.16,9.13,9.13,0,0,0,3.78-.45,12.33,12.33,0,0,0,3.89-2.07,35.07,35.07,0,0,0,4.4-4.24C279.32,84.54,280.23,83.64,281.69,82.24Zm13.3-9a11.87,11.87,0,0,0-1.62-1.85,7.25,7.25,0,0,0-4.43-2A10.24,10.24,0,0,0,283.36,71a22.56,22.56,0,0,0-6.49,5.12,3.73,3.73,0,0,0-.9,2.2,1.92,1.92,0,0,0,.59,1.67,4.77,4.77,0,0,0,2.65.8,9.65,9.65,0,0,0,3.72-.43,25.62,25.62,0,0,0,5.37-2.89Q291.62,75.27,295,73.2Z"/><path d="M123.32,310.14l-1.65-.77a38.53,38.53,0,0,0,2.31-4,4.66,4.66,0,0,0,.28-3.75,5.35,5.35,0,0,0-2.69-2.8,10.23,10.23,0,0,0-6.62-1.1,6.81,6.81,0,0,0-5.06,2.91,4.91,4.91,0,0,0-.79,2.76,16,16,0,0,0,1.28,4.8,50.27,50.27,0,0,1,3,8.75,7.51,7.51,0,0,1-.48,4.66,8.48,8.48,0,0,1-5.12,4.16,17.76,17.76,0,0,1-9.44.2,29.42,29.42,0,0,1-10.87-4.81,20.15,20.15,0,0,1-7-7.95c-1.3-2.87-1.36-4.92-.35-6.11a2.61,2.61,0,0,1,2.18-.91,3.84,3.84,0,0,1,2.39.91A3.52,3.52,0,0,1,86,309.18a5,5,0,0,1-.36,2.35,6.37,6.37,0,0,0-.41,3.24,7.15,7.15,0,0,0,1.31,2.78,11.74,11.74,0,0,0,2.77,2.66,17.48,17.48,0,0,0,10.37,3.38c3.5-.07,5.75-1.18,6.84-3.14a5.4,5.4,0,0,0,.65-2.25,10.65,10.65,0,0,0-.4-3.19c-.22-.89-.88-2.6-1.85-5.14a28.54,28.54,0,0,1-1.58-4.95,8.86,8.86,0,0,1,.05-3.1,6.56,6.56,0,0,1,1-2.45,8.79,8.79,0,0,1,4.71-3.17,16.56,16.56,0,0,1,6.72-.73,18.35,18.35,0,0,1,7,2.15,37,37,0,0,1,4.15,2.66c.92.65,1.74,1.18,2.45,1.59a31.06,31.06,0,0,0-2.45,2.77C126.37,305.53,125.13,307.37,123.32,310.14Z"/><path d="M140.56,318.62a31.33,31.33,0,0,0-5.49,4.84,14.64,14.64,0,0,0-2.73,4.75,29.91,29.91,0,0,0-1,7.81c6.63-1.26,11.27-3.26,14.15-5.46s4.43-4.39,4.84-6.37a4.75,4.75,0,0,0-.34-2.36,4.75,4.75,0,0,1-.4-2.26,1.74,1.74,0,0,1,.88-1.15,2.14,2.14,0,0,1,1.55-.25,2.26,2.26,0,0,1,1.61,1.15,4.39,4.39,0,0,1,.18,2.85c-.73,4-3.18,7.64-7.77,10.59-5.63,3.6-12.71,5.56-21,5.32.12-.92.25-2.4.4-4.44a34.78,34.78,0,0,1,1.4-8.31,11.44,11.44,0,0,1,3.84-4.94,17.64,17.64,0,0,1,6.62-3c-3.92-1.2-6.8-1.92-8.73-1.95-1.37,0-2.18.28-2.44.9a3.55,3.55,0,0,0-.05,1.44,2.81,2.81,0,0,1-.12,1.16,1,1,0,0,1-.77.57,2,2,0,0,1-1.28-.14,2.21,2.21,0,0,1-1.24-1.23,2.18,2.18,0,0,1,.08-1.81,4.23,4.23,0,0,1,2.51-2.25,10.89,10.89,0,0,1,5.21-.18,56.69,56.69,0,0,1,8.55,2.22,13.14,13.14,0,0,1,2.89,0,1.54,1.54,0,0,1,.86.63,1,1,0,0,1,.21.89C142.88,318.23,142.05,318.56,140.56,318.62Z"/><path d="M173.21,338c.41.44.82.87,1.24,1.3-6.43,4.34-12.44,6-17.13,5.42a6.07,6.07,0,0,1-4.15-2c-.85-1.07-1.09-2.61-.74-4.61.69-4,3-7.75,6.68-11.35,4.08-4.11,8.15-6,12.74-5.82a6.13,6.13,0,0,1,3.67,1.12,3.46,3.46,0,0,1,1.27,2.81,5.41,5.41,0,0,1-1.63,3.67,16.5,16.5,0,0,1-6,3.54,73.59,73.59,0,0,1-9.56,2.56,14.31,14.31,0,0,0-.71,2.89,3.71,3.71,0,0,0,.52,2.93,3.63,3.63,0,0,0,2.49,1.09,10.51,10.51,0,0,0,3.6-.33A38.92,38.92,0,0,0,173.21,338Zm-12.93-5.13a25,25,0,0,0,9.26-3.64,4.47,4.47,0,0,0,2.13-3.21,2.59,2.59,0,0,0-.7-2,2.92,2.92,0,0,0-2-.84,4.57,4.57,0,0,0-2.55.62,8.78,8.78,0,0,0-3.07,2.94A27.52,27.52,0,0,0,160.28,332.9Z"/><path d="M187.42,345c-2,.13-4,.23-6,.28q1.31-3.9,2.47-7.82c1.12-3.85,2-7.51,2.65-11a10.62,10.62,0,0,0,.21-1.6c0-.46-.31-.67-.82-.63a4,4,0,0,0-1.57.68A45.41,45.41,0,0,0,180.5,328l-1.12-1a34.15,34.15,0,0,1,6.49-4.71,15.05,15.05,0,0,1,4.86-1.9,1.68,1.68,0,0,1,1,.14.71.71,0,0,1,.43.57,10.68,10.68,0,0,1-.22,2q-.47,2.65-1,5.3a57.64,57.64,0,0,1,6.92-8.82,6.66,6.66,0,0,1,3.13-2.14,2.68,2.68,0,0,1,1.77.22,1.69,1.69,0,0,1,.94,1.14,1.61,1.61,0,0,1-.39,1.43,10.2,10.2,0,0,1-3.08,1.91,19.31,19.31,0,0,0-3.89,2.38,22.18,22.18,0,0,0-3.21,3.52,18.88,18.88,0,0,0-2.43,3.89,64.46,64.46,0,0,0-1.91,7.33C188.36,341.17,187.9,343.06,187.42,345Z"/><path d="M202.6,325.4l-1.72-.68a33.73,33.73,0,0,1,5.35-5.68,13,13,0,0,1,4.35-2.47,3,3,0,0,1,1.72-.06,1.28,1.28,0,0,1,.86.89c.15.54.12,3-.31,7.43-.72,7.23-1.19,11.55-.85,12.9a.94.94,0,0,0,.43.59.83.83,0,0,0,.65.13c.82-.21,2.69-1.88,5.33-5.13.59.2,1.18.41,1.78.6a38,38,0,0,1-6.45,6.7,10.94,10.94,0,0,1-3.84,2,3.64,3.64,0,0,1-2.35-.15,2.09,2.09,0,0,1-1.15-1.56c-.5-2.35.48-8.47,1.79-18.35a3.33,3.33,0,0,0,0-1.2c-.09-.38-.34-.51-.75-.42a3.76,3.76,0,0,0-1.45.81C205.43,322.14,204.36,323.38,202.6,325.4Zm8.19-21.59a2.25,2.25,0,0,1,1.68.1,2,2,0,0,1,1.06,1.24,3.23,3.23,0,0,1-2.08,4,2.23,2.23,0,0,1-1.71-.13,2,2,0,0,1-1-1.35,3,3,0,0,1,.28-2.36A3,3,0,0,1,210.79,303.81Z"/><path d="M237.82,305.64c.74-.6,1.47-1.21,2.2-1.82.75,4.74,1.45,9.46,2.16,14.17a78.46,78.46,0,0,0,1.53,8.26,20.38,20.38,0,0,0,1.45,3.83,14.9,14.9,0,0,1,1.72,6.58c0,2.65-1.32,5.37-3.87,8a26.39,26.39,0,0,1-10.55,6.44c-3.83,1.34-7.06,1.68-9.6,1.14s-4-1.61-4.38-3.13.1-3.12,1.41-4.88c1-1.33,3.21-3.23,6.55-5.88a57.22,57.22,0,0,0,4.59-4.1,13.87,13.87,0,0,1-4.05,2.64,4,4,0,0,1-2.86-.08,3.26,3.26,0,0,1-1.9-2.15c-1.07-3.36-.75-7.12.66-11.29a31.43,31.43,0,0,1,6-10.76,22.61,22.61,0,0,1,6.87-5l2.16-1.07C237.89,306.25,237.86,305.94,237.82,305.64Zm.58,21.94a69.18,69.18,0,0,1-7.71,9.25c-3.65,3.72-6,6.11-6.78,7.37a4.34,4.34,0,0,0-.68,3.51c.31,1.05,1.29,1.78,3,2.17a10,10,0,0,0,5.57-.46,16.55,16.55,0,0,0,5.17-2.94,13.17,13.17,0,0,0,3.5-4.44,9.2,9.2,0,0,0,1-4.91,20.15,20.15,0,0,0-1.78-5.88C239.42,330.73,239,329.51,238.4,327.58Zm-2.12-16.35a25.39,25.39,0,0,0-2.84,1.1,11,11,0,0,0-6.88,9.75c-.41,3.58-.33,6.4.42,8.46a2.88,2.88,0,0,0,1.77,1.77,3.46,3.46,0,0,0,2.55,0,9.15,9.15,0,0,0,3.26-2.51,10.77,10.77,0,0,0,2.4-4.07,17.57,17.57,0,0,0,.26-6.46C237,316.58,236.64,313.9,236.28,311.23Z"/><path d="M268.27,305.84c.61,0,1.23.09,1.85.12-2.35,7.73-6,13.06-10.16,15.73a6.48,6.48,0,0,1-4.59,1.24c-1.36-.25-2.55-1.27-3.58-3-2.09-3.53-2.64-7.91-2.11-13.06.56-5.85,2.56-10,6.37-13a6.8,6.8,0,0,1,3.68-1.67,3.35,3.35,0,0,1,2.86,1.25,5.24,5.24,0,0,1,1.08,3.9,17.54,17.54,0,0,1-2.51,6.81,77.71,77.71,0,0,1-6,8.39,13.29,13.29,0,0,0,1.32,2.67,3.61,3.61,0,0,0,2.32,1.88,3.92,3.92,0,0,0,2.68-.84,11.15,11.15,0,0,0,2.66-2.69A41.73,41.73,0,0,0,268.27,305.84Zm-13.68,4.87a26.36,26.36,0,0,0,5-9c.44-1.73.3-3-.38-3.88a2.51,2.51,0,0,0-1.86-1,3.18,3.18,0,0,0-2.15.71,5,5,0,0,0-1.63,2.2,8.83,8.83,0,0,0-.53,4.31A26.8,26.8,0,0,0,254.59,310.71Z"/><text class="cls-2" transform="translate(311.11 180)">2019</text><text class="cls-2" transform="translate(10.72 180)">anno</text><path class="cls-3" d="M110.61,246.71a312,312,0,0,0,65.8,40.61,8.73,8.73,0,0,0,7.18,0,312,312,0,0,0,65.8-40.61c5.7-4.68,1-13.24-5.87-11.71a300.62,300.62,0,0,1-127,0C109.59,233.47,104.91,242,110.61,246.71Z"/><path class="cls-4" d="M110.61,246.71a312,312,0,0,0,65.8,40.61,8.73,8.73,0,0,0,7.18,0,312,312,0,0,0,65.8-40.61c5.7-4.68,1-13.24-5.87-11.71a300.62,300.62,0,0,1-127,0C109.59,233.47,104.91,242,110.61,246.71Z"/><path class="cls-3" d="M154.61,62.22A818.47,818.47,0,0,0,169.13,227.7c.72,3.89,6.39,7,12.62,6.74a452.62,452.62,0,0,0,114.06-19.07c7.72-2.35,10.21-8.84,5-12.05-61.33-38.26-106.2-89.4-132.37-143.88C165.17,52.62,154.83,54.67,154.61,62.22Z"/><path class="cls-5" d="M154.61,62.22A818.47,818.47,0,0,0,169.13,227.7c.72,3.89,6.39,7,12.62,6.74a452.62,452.62,0,0,0,114.06-19.07c7.72-2.35,10.21-8.84,5-12.05-61.33-38.26-106.2-89.4-132.37-143.88C165.17,52.62,154.83,54.67,154.61,62.22Z"/><path class="cls-6" d="M73.7,248.47c17.71,0,17.71,11.34,35.43,11.34s17.72-11.34,35.43-11.34,17.72,11.34,35.43,11.34,17.72-11.34,35.44-11.34,17.71,11.34,35.43,11.34,17.72-11.34,35.44-11.34"/><path class="cls-7" d="M72,245.51c18,0,18,11.34,36,11.34s18-11.34,36-11.34,18,11.34,36,11.34,18-11.34,36-11.34,18,11.34,36,11.34,18-11.34,36-11.34"/></svg>