<svg id="Lager_1" data-name="Lager 1" xmlns="http://www.w3.org/2000/svg" xmlns:xlink="http://www.w3.org/1999/xlink" viewBox="0 0 360 360"><defs><style>.cls-1{fill:#fff8dc;}.cls-2{font-size:60px;font-family:MonotypeCorsiva, Monotype Corsiva;text-decoration:underline;}.cls-3{fill:#f5fffa;}.cls-4,.cls-5{fill:none;stroke-miterlimit:10;}.cls-4{stroke:url(#Blå_himmel);}.cls-5{stroke:url(#Vit_svart);}</style><linearGradient id="Blå_himmel" x1="16.79" y1="291.89" x2="343.87" y2="291.89" gradientUnits="userSpaceOnUse"><stop offset="0" stop-color="#3ddeed"/><stop offset="1" stop-color="#3ddeed" stop-opacity="0"/></linearGradient><linearGradient id="Vit_svart" x1="152.67" y1="140.25" x2="300.4" y2="140.25" gradientTransform="matrix(1.45, -0.04, -0.04, 1.2, -72.88, -39.19)" gradientUnits="userSpaceOnUse"><stop offset="0" stop-color="#fff"/><stop offset="1"/></linearGradient></defs><title>loggo</title><circle class="cls-1" cx="180" cy="180" r="178.5"/><path d="M180,3A177,177,0,0,1,305.16,305.16,177,177,0,0,1,54.84,54.84,175.84,175.84,0,0,1,180,3m0-3A180,180,0,1,0,360,180,180,180,0,0,0,180,0Z"/><path d="M180,6.67A173.33,173.33,0,0,1,302.56,302.56,173.33,173.33,0,1,1,57.44,57.44,172.17,172.17,0,0,1,180,6.67m0-1A174.33,174.33,0,1,0,354.33,180,174.33,174.33,0,0,0,180,5.67Z"/><text class="cls-2" transform="translate(19.06 213.73)">2019</text><text class="cls-2" transform="translate(19.06 158.81)">anno</text><path class="cls-3" d="M19.46,241.92A701.39,701.39,0,0,0,176.35,352.48a8.75,8.75,0,0,0,8,0A701.39,701.39,0,0,0,341.21,241.92c5.09-4.81.46-12.95-6.26-11.39a690.76,690.76,0,0,1-309.24,0C19,229,14.37,237.11,19.46,241.92Z"/><path class="cls-4" d="M19.46,241.92A701.39,701.39,0,0,0,176.35,352.48a8.75,8.75,0,0,0,8,0A701.39,701.39,0,0,0,341.21,241.92c5.09-4.81.46-12.95-6.26-11.39a690.76,690.76,0,0,1-309.24,0C19,229,14.37,237.11,19.46,241.92Z"/><path class="cls-3" d="M146.49,16.18a1150.62,1150.62,0,0,0,16.72,212.5c.66,3.89,6,7,12,6.85a613.4,613.4,0,0,0,169.35-28.15c7.67-2.43,9.79-9.26,4.1-12.34C263.23,148.46,199.22,83.43,160,13,156.48,6.61,146.68,8.89,146.49,16.18Z"/><path class="cls-5" d="M146.49,16.18a1150.62,1150.62,0,0,0,16.72,212.5c.66,3.89,6,7,12,6.85a613.4,613.4,0,0,0,169.35-28.15c7.67-2.43,9.79-9.26,4.1-12.34C263.23,148.46,199.22,83.43,160,13,156.48,6.61,146.68,8.89,146.49,16.18Z"/></svg>